<mxfile host="Electron" agent="Mozilla/5.0 (Macintosh; Intel Mac OS X 10_15_7) AppleWebKit/537.36 (KHTML, like Gecko) draw.io/26.0.16 Chrome/132.0.6834.196 Electron/34.2.0 Safari/537.36" version="26.0.16">
  <diagram name="Page-1" id="76pbbYFODiqiUQYVt0wl">
    <mxGraphModel dx="1578" dy="2357" grid="1" gridSize="10" guides="1" tooltips="1" connect="1" arrows="1" fold="1" page="1" pageScale="1" pageWidth="827" pageHeight="1169" math="0" shadow="0">
      <root>
        <mxCell id="0" />
        <mxCell id="1" parent="0" />
        <mxCell id="8AMlhz3cNbG_tFNBuSd6-19" value="" style="rounded=0;whiteSpace=wrap;html=1;fillColor=#f5f5f5;fontColor=#333333;strokeColor=#666666;" parent="1" vertex="1">
          <mxGeometry x="110" y="-30" width="1280" height="1230" as="geometry" />
        </mxCell>
        <mxCell id="8AMlhz3cNbG_tFNBuSd6-17" value="" style="rounded=0;whiteSpace=wrap;html=1;fillColor=#fff2cc;strokeColor=#d6b656;" parent="1" vertex="1">
          <mxGeometry x="140" y="870" width="1220" height="300" as="geometry" />
        </mxCell>
        <mxCell id="8AMlhz3cNbG_tFNBuSd6-15" value="" style="rounded=0;whiteSpace=wrap;html=1;fillColor=#ffe6cc;strokeColor=#d79b00;" parent="1" vertex="1">
          <mxGeometry x="140" y="640" width="1220" height="200" as="geometry" />
        </mxCell>
        <mxCell id="8AMlhz3cNbG_tFNBuSd6-13" value="" style="rounded=0;whiteSpace=wrap;html=1;fillColor=#d5e8d4;strokeColor=#82b366;" parent="1" vertex="1">
          <mxGeometry x="140" y="290" width="1220" height="330" as="geometry" />
        </mxCell>
        <mxCell id="TjXJ5lC_Gi52OWalPRyf-13" value="" style="rounded=0;whiteSpace=wrap;html=1;fillColor=#dae8fc;strokeColor=#6c8ebf;" parent="1" vertex="1">
          <mxGeometry x="140" y="40" width="1220" height="220" as="geometry" />
        </mxCell>
        <mxCell id="O9yySBIB9pVkgAcjC5Zg-1" value="&lt;span style=&quot;color: rgb(51, 51, 51); font-family: arial, sans-serif; font-size: 14px; text-wrap-mode: nowrap; background-color: rgb(255, 255, 255);&quot;&gt;Web scraping (&lt;/span&gt;&lt;span style=&quot;--tw-border-spacing-x: 0; --tw-border-spacing-y: 0; --tw-translate-x: 0; --tw-translate-y: 0; --tw-rotate: 0; --tw-skew-x: 0; --tw-skew-y: 0; --tw-scale-x: 1; --tw-scale-y: 1; --tw-pan-x: ; --tw-pan-y: ; --tw-pinch-zoom: ; --tw-scroll-snap-strictness: proximity; --tw-gradient-from-position: ; --tw-gradient-via-position: ; --tw-gradient-to-position: ; --tw-ordinal: ; --tw-slashed-zero: ; --tw-numeric-figure: ; --tw-numeric-spacing: ; --tw-numeric-fraction: ; --tw-ring-inset: ; --tw-ring-offset-width: 0px; --tw-ring-offset-color: light-dark(#fff, #000000); --tw-ring-color: rgb(59 130 246 / .5); --tw-ring-offset-shadow: 0 0 #0000; --tw-ring-shadow: 0 0 #0000; --tw-shadow: 0 0 #0000; --tw-shadow-colored: 0 0 #0000; --tw-blur: ; --tw-brightness: ; --tw-contrast: ; --tw-grayscale: ; --tw-hue-rotate: ; --tw-invert: ; --tw-saturate: ; --tw-sepia: ; --tw-drop-shadow: ; --tw-backdrop-blur: ; --tw-backdrop-brightness: ; --tw-backdrop-contrast: ; --tw-backdrop-grayscale: ; --tw-backdrop-hue-rotate: ; --tw-backdrop-invert: ; --tw-backdrop-opacity: ; --tw-backdrop-saturate: ; --tw-backdrop-sepia: ; --tw-contain-size: ; --tw-contain-layout: ; --tw-contain-paint: ; --tw-contain-style: ; box-sizing: border-box; border-width: 0px; border-style: solid; border-color: rgb(229, 231, 235); font-weight: bolder; color: rgb(51, 51, 51); font-family: arial, sans-serif; font-size: 14px; text-wrap-mode: nowrap; background-color: rgb(255, 255, 255);&quot; data-prosemirror-mark-name=&quot;strong&quot; data-prosemirror-content-type=&quot;mark&quot;&gt;Leboncoin, SeLoger,&lt;/span&gt;&lt;div&gt;&lt;span style=&quot;--tw-border-spacing-x: 0; --tw-border-spacing-y: 0; --tw-translate-x: 0; --tw-translate-y: 0; --tw-rotate: 0; --tw-skew-x: 0; --tw-skew-y: 0; --tw-scale-x: 1; --tw-scale-y: 1; --tw-pan-x: ; --tw-pan-y: ; --tw-pinch-zoom: ; --tw-scroll-snap-strictness: proximity; --tw-gradient-from-position: ; --tw-gradient-via-position: ; --tw-gradient-to-position: ; --tw-ordinal: ; --tw-slashed-zero: ; --tw-numeric-figure: ; --tw-numeric-spacing: ; --tw-numeric-fraction: ; --tw-ring-inset: ; --tw-ring-offset-width: 0px; --tw-ring-offset-color: light-dark(#fff, #000000); --tw-ring-color: rgb(59 130 246 / .5); --tw-ring-offset-shadow: 0 0 #0000; --tw-ring-shadow: 0 0 #0000; --tw-shadow: 0 0 #0000; --tw-shadow-colored: 0 0 #0000; --tw-blur: ; --tw-brightness: ; --tw-contrast: ; --tw-grayscale: ; --tw-hue-rotate: ; --tw-invert: ; --tw-saturate: ; --tw-sepia: ; --tw-drop-shadow: ; --tw-backdrop-blur: ; --tw-backdrop-brightness: ; --tw-backdrop-contrast: ; --tw-backdrop-grayscale: ; --tw-backdrop-hue-rotate: ; --tw-backdrop-invert: ; --tw-backdrop-opacity: ; --tw-backdrop-saturate: ; --tw-backdrop-sepia: ; --tw-contain-size: ; --tw-contain-layout: ; --tw-contain-paint: ; --tw-contain-style: ; box-sizing: border-box; border-width: 0px; border-style: solid; border-color: rgb(229, 231, 235); font-weight: bolder; color: rgb(51, 51, 51); font-family: arial, sans-serif; font-size: 14px; text-wrap-mode: nowrap; background-color: rgb(255, 255, 255);&quot; data-prosemirror-mark-name=&quot;strong&quot; data-prosemirror-content-type=&quot;mark&quot;&gt;PAP, Bien&#39;Ici, ...&lt;/span&gt;&lt;span style=&quot;color: rgb(51, 51, 51); font-family: arial, sans-serif; font-size: 14px; text-wrap-mode: nowrap; background-color: rgb(255, 255, 255);&quot;&gt;) pour récup prix, surface,&lt;/span&gt;&lt;/div&gt;&lt;div&gt;&lt;span style=&quot;color: rgb(51, 51, 51); font-family: arial, sans-serif; font-size: 14px; text-wrap-mode: nowrap; background-color: rgb(255, 255, 255);&quot;&gt;localisation (latitude/longitude), type de bien,&lt;/span&gt;&lt;/div&gt;&lt;div&gt;&lt;span style=&quot;color: rgb(51, 51, 51); font-family: arial, sans-serif; font-size: 14px; text-wrap-mode: nowrap; background-color: rgb(255, 255, 255);&quot;&gt;nombre de pièces&lt;/span&gt;&lt;/div&gt;" style="rounded=0;whiteSpace=wrap;html=1;" parent="1" vertex="1">
          <mxGeometry x="270" y="130" width="290" height="90" as="geometry" />
        </mxCell>
        <mxCell id="RL9JBqMayldOLhs2bzXQ-27" value="" style="shape=image;verticalLabelPosition=bottom;labelBackgroundColor=default;verticalAlign=top;aspect=fixed;imageAspect=0;image=https://upload.wikimedia.org/wikipedia/commons/8/8a/Plotly-logo.png;" parent="1" vertex="1">
          <mxGeometry x="850" y="1085" width="104.25" height="34.75" as="geometry" />
        </mxCell>
        <mxCell id="TjXJ5lC_Gi52OWalPRyf-1" value="A automatiser 1 fois&lt;div&gt;par jour&amp;nbsp;&lt;span style=&quot;background-color: transparent; color: light-dark(rgb(0, 0, 0), rgb(255, 255, 255));&quot;&gt;ou par&lt;/span&gt;&lt;/div&gt;&lt;div&gt;&lt;span style=&quot;background-color: transparent; color: light-dark(rgb(0, 0, 0), rgb(255, 255, 255));&quot;&gt;semaine par ex&lt;/span&gt;&lt;/div&gt;" style="text;html=1;align=center;verticalAlign=middle;resizable=0;points=[];autosize=1;" parent="1" vertex="1">
          <mxGeometry x="350" y="60" width="130" height="60" as="geometry" />
        </mxCell>
        <mxCell id="TjXJ5lC_Gi52OWalPRyf-2" value="&lt;span style=&quot;color: rgb(51, 51, 51); font-family: arial, sans-serif; font-size: 14px; text-wrap-mode: nowrap; background-color: rgb(255, 255, 255);&quot;&gt;Web scraping bien-dans-ma-ville.fr&lt;/span&gt;&lt;span style=&quot;background-color: light-dark(rgb(255, 255, 255), rgb(18, 18, 18)); color: light-dark(rgb(51, 51, 51), rgb(193, 193, 193)); font-family: arial, sans-serif; font-size: 14px; text-wrap-mode: nowrap;&quot;&gt;&amp;nbsp;pour&amp;nbsp;&lt;/span&gt;&lt;div&gt;&lt;span style=&quot;background-color: light-dark(rgb(255, 255, 255), rgb(18, 18, 18)); color: light-dark(rgb(51, 51, 51), rgb(193, 193, 193)); font-family: arial, sans-serif; font-size: 14px; text-wrap-mode: nowrap;&quot;&gt;récup des infos sur les villes : sécurité,&lt;br&gt;&lt;/span&gt;&lt;/div&gt;&lt;div&gt;&lt;span style=&quot;background-color: light-dark(rgb(255, 255, 255), rgb(18, 18, 18)); color: light-dark(rgb(51, 51, 51), rgb(193, 193, 193)); font-family: arial, sans-serif; font-size: 14px; text-wrap-mode: nowrap;&quot;&gt;infos pratiques, etc...&lt;/span&gt;&lt;/div&gt;" style="rounded=0;whiteSpace=wrap;html=1;" parent="1" vertex="1">
          <mxGeometry x="630" y="130" width="290" height="90" as="geometry" />
        </mxCell>
        <mxCell id="TjXJ5lC_Gi52OWalPRyf-3" value="A executer 1 fois au début,&lt;div&gt;pas de besoin pour une&lt;/div&gt;&lt;div&gt;automatisation&lt;/div&gt;" style="text;html=1;align=center;verticalAlign=middle;resizable=0;points=[];autosize=1;" parent="1" vertex="1">
          <mxGeometry x="690" y="60" width="170" height="60" as="geometry" />
        </mxCell>
        <mxCell id="TjXJ5lC_Gi52OWalPRyf-4" value="&lt;font face=&quot;arial, sans-serif&quot;&gt;&lt;span style=&quot;background-color: rgb(255, 255, 255);&quot;&gt;&lt;font style=&quot;color: rgb(51, 51, 51);&quot;&gt;&lt;font&gt;&lt;span style=&quot;font-size: 14px; text-wrap-mode: nowrap;&quot;&gt;Téléchargement dataset INSEE&amp;nbsp;&lt;/span&gt;&lt;/font&gt;&lt;br&gt;&lt;/font&gt;&lt;span style=&quot;color: light-dark(rgb(51, 51, 51), rgb(193, 193, 193)); font-size: 14px; text-wrap-mode: nowrap;&quot;&gt;https://www.insee.fr/fr/statistiques/5359146&lt;/span&gt;&lt;/span&gt;&lt;/font&gt;&lt;div&gt;&lt;font face=&quot;arial, sans-serif&quot; color=&quot;#333333&quot;&gt;&lt;span style=&quot;font-size: 14px; text-wrap-mode: nowrap; background-color: rgb(255, 255, 255);&quot;&gt;:&amp;nbsp;&lt;/span&gt;&lt;/font&gt;&lt;span style=&quot;background-color: transparent; font-size: 14px; text-wrap-mode: nowrap;&quot;&gt;&lt;font face=&quot;arial, sans-serif&quot; color=&quot;#333333&quot;&gt;Revenus moyens par ménage,&amp;nbsp;&lt;/font&gt;&lt;/span&gt;&lt;span style=&quot;font-size: 14px; color: rgb(51, 51, 51); font-family: arial, sans-serif; background-color: transparent;&quot;&gt;Taux de chômage,&amp;nbsp;&lt;/span&gt;&lt;span style=&quot;font-size: 14px; color: rgb(51, 51, 51); font-family: arial, sans-serif; background-color: transparent;&quot;&gt;Population et densité,&amp;nbsp;&lt;/span&gt;&lt;span style=&quot;font-size: 14px; color: rgb(51, 51, 51); font-family: arial, sans-serif; background-color: transparent;&quot;&gt;Niveau d’éducation,&amp;nbsp;&lt;/span&gt;&lt;span style=&quot;font-size: 14px; color: rgb(51, 51, 51); font-family: arial, sans-serif; background-color: transparent;&quot;&gt;Nombre de logements sociaux&lt;/span&gt;&lt;/div&gt;" style="rounded=0;whiteSpace=wrap;html=1;" parent="1" vertex="1">
          <mxGeometry x="980" y="130" width="290" height="90" as="geometry" />
        </mxCell>
        <mxCell id="TjXJ5lC_Gi52OWalPRyf-5" value="A executer 1 fois au début,&lt;div&gt;pas de besoin pour une&lt;/div&gt;&lt;div&gt;automatisation&lt;/div&gt;" style="text;html=1;align=center;verticalAlign=middle;resizable=0;points=[];autosize=1;" parent="1" vertex="1">
          <mxGeometry x="1040" y="60" width="170" height="60" as="geometry" />
        </mxCell>
        <mxCell id="TjXJ5lC_Gi52OWalPRyf-7" value="&lt;font style=&quot;font-size: 14px;&quot;&gt;Traitement des données (nettoyage, formatage des données pour mise en base, calcul des metrics si nécessaire)&lt;/font&gt;" style="whiteSpace=wrap;html=1;rounded=0;" parent="1" vertex="1">
          <mxGeometry x="990" y="520" width="280" height="80" as="geometry" />
        </mxCell>
        <mxCell id="TjXJ5lC_Gi52OWalPRyf-8" value="" style="edgeStyle=orthogonalEdgeStyle;rounded=0;orthogonalLoop=1;jettySize=auto;html=1;exitX=0.5;exitY=1;exitDx=0;exitDy=0;entryX=0.48;entryY=-0.006;entryDx=0;entryDy=0;entryPerimeter=0;" parent="1" target="TjXJ5lC_Gi52OWalPRyf-37" edge="1">
          <mxGeometry relative="1" as="geometry">
            <mxPoint x="765" y="220" as="sourcePoint" />
            <mxPoint x="770" y="468" as="targetPoint" />
            <Array as="points">
              <mxPoint x="769" y="221" />
            </Array>
          </mxGeometry>
        </mxCell>
        <mxCell id="TjXJ5lC_Gi52OWalPRyf-9" value="" style="edgeStyle=orthogonalEdgeStyle;rounded=0;orthogonalLoop=1;jettySize=auto;html=1;exitX=0.5;exitY=1;exitDx=0;exitDy=0;" parent="1" edge="1">
          <mxGeometry relative="1" as="geometry">
            <mxPoint x="1124.44" y="220" as="sourcePoint" />
            <mxPoint x="1124.44" y="340" as="targetPoint" />
            <Array as="points" />
          </mxGeometry>
        </mxCell>
        <mxCell id="TjXJ5lC_Gi52OWalPRyf-11" value="" style="edgeStyle=orthogonalEdgeStyle;rounded=0;orthogonalLoop=1;jettySize=auto;html=1;exitX=0.5;exitY=1;exitDx=0;exitDy=0;" parent="1" source="TjXJ5lC_Gi52OWalPRyf-7" target="TjXJ5lC_Gi52OWalPRyf-12" edge="1">
          <mxGeometry relative="1" as="geometry">
            <mxPoint x="1126.21" y="614" as="sourcePoint" />
          </mxGeometry>
        </mxCell>
        <mxCell id="TjXJ5lC_Gi52OWalPRyf-12" value="" style="shape=image;verticalLabelPosition=bottom;labelBackgroundColor=default;verticalAlign=top;aspect=fixed;imageAspect=0;image=https://www.impulsmap.fr/wp-content/uploads/2016/07/LogoPostgreSql100reel.png;" parent="1" vertex="1">
          <mxGeometry x="1078.21" y="714" width="103.59" height="115" as="geometry" />
        </mxCell>
        <mxCell id="TjXJ5lC_Gi52OWalPRyf-14" value="&lt;font style=&quot;font-size: 18px; color: rgb(66, 129, 255);&quot;&gt;Données sources&lt;/font&gt;" style="text;html=1;align=center;verticalAlign=middle;whiteSpace=wrap;rounded=0;" parent="1" vertex="1">
          <mxGeometry x="170" y="60" width="60" height="30" as="geometry" />
        </mxCell>
        <mxCell id="TjXJ5lC_Gi52OWalPRyf-15" value="&lt;font style=&quot;font-size: 14px;&quot;&gt;Stockage dans HDFS (Hadoop)&lt;/font&gt;" style="whiteSpace=wrap;html=1;rounded=0;" parent="1" vertex="1">
          <mxGeometry x="985" y="340" width="280" height="80" as="geometry" />
        </mxCell>
        <mxCell id="TjXJ5lC_Gi52OWalPRyf-16" style="edgeStyle=orthogonalEdgeStyle;rounded=0;orthogonalLoop=1;jettySize=auto;html=1;entryX=0.48;entryY=-0.012;entryDx=0;entryDy=0;entryPerimeter=0;" parent="1" source="TjXJ5lC_Gi52OWalPRyf-15" target="TjXJ5lC_Gi52OWalPRyf-7" edge="1">
          <mxGeometry relative="1" as="geometry" />
        </mxCell>
        <mxCell id="TjXJ5lC_Gi52OWalPRyf-18" value="" style="shape=image;verticalLabelPosition=bottom;labelBackgroundColor=default;verticalAlign=top;aspect=fixed;imageAspect=0;image=https://upload.wikimedia.org/wikipedia/commons/thumb/f/f3/Apache_Spark_logo.svg/2560px-Apache_Spark_logo.svg.png;" parent="1" vertex="1">
          <mxGeometry x="1181.8" y="473.28" width="90" height="46.72" as="geometry" />
        </mxCell>
        <mxCell id="TjXJ5lC_Gi52OWalPRyf-21" value="" style="shape=image;verticalLabelPosition=bottom;labelBackgroundColor=default;verticalAlign=top;aspect=fixed;imageAspect=0;image=https://upload.wikimedia.org/wikipedia/commons/thumb/0/0e/Hadoop_logo.svg/1280px-Hadoop_logo.svg.png;" parent="1" vertex="1">
          <mxGeometry x="1145" y="308.33" width="121.8" height="31.67" as="geometry" />
        </mxCell>
        <mxCell id="TjXJ5lC_Gi52OWalPRyf-24" value="" style="rounded=0;whiteSpace=wrap;html=1;fillColor=#dae8fc;strokeColor=#6c8ebf;" parent="1" vertex="1">
          <mxGeometry x="140" y="40" width="1220" height="220" as="geometry" />
        </mxCell>
        <mxCell id="TjXJ5lC_Gi52OWalPRyf-25" value="&lt;div&gt;&lt;span style=&quot;color: rgb(51, 51, 51); font-family: arial, sans-serif; font-size: 14px; text-wrap-mode: nowrap; background-color: rgb(255, 255, 255);&quot;&gt;API ou csv du gouv pour récup histo des&lt;/span&gt;&lt;/div&gt;&lt;div&gt;&lt;span style=&quot;color: rgb(51, 51, 51); font-family: arial, sans-serif; font-size: 14px; text-wrap-mode: nowrap; background-color: rgb(255, 255, 255);&quot;&gt;ventes : prix, surface,&amp;nbsp;&lt;/span&gt;&lt;span style=&quot;background-color: rgb(255, 255, 255); color: rgb(51, 51, 51); font-family: arial, sans-serif; font-size: 14px; text-wrap-mode: nowrap;&quot;&gt;localisation&amp;nbsp;&lt;/span&gt;&lt;/div&gt;&lt;div&gt;&lt;span style=&quot;background-color: rgb(255, 255, 255); color: rgb(51, 51, 51); font-family: arial, sans-serif; font-size: 14px; text-wrap-mode: nowrap;&quot;&gt;(latitude/longitude), type de bien,&lt;/span&gt;&lt;/div&gt;&lt;div&gt;&lt;span style=&quot;color: rgb(51, 51, 51); font-family: arial, sans-serif; font-size: 14px; text-wrap-mode: nowrap; background-color: rgb(255, 255, 255);&quot;&gt;nombre de pièces, etc...&lt;/span&gt;&lt;/div&gt;" style="rounded=0;whiteSpace=wrap;html=1;" parent="1" vertex="1">
          <mxGeometry x="270" y="130" width="290" height="90" as="geometry" />
        </mxCell>
        <mxCell id="TjXJ5lC_Gi52OWalPRyf-26" value="" style="edgeStyle=orthogonalEdgeStyle;rounded=0;orthogonalLoop=1;jettySize=auto;html=1;exitX=0.5;exitY=1;exitDx=0;exitDy=0;" parent="1" source="TjXJ5lC_Gi52OWalPRyf-25" target="TjXJ5lC_Gi52OWalPRyf-28" edge="1">
          <mxGeometry relative="1" as="geometry">
            <mxPoint x="414" y="270" as="sourcePoint" />
            <Array as="points" />
          </mxGeometry>
        </mxCell>
        <mxCell id="TjXJ5lC_Gi52OWalPRyf-27" value="" style="edgeStyle=orthogonalEdgeStyle;rounded=0;orthogonalLoop=1;jettySize=auto;html=1;" parent="1" source="TjXJ5lC_Gi52OWalPRyf-28" target="TjXJ5lC_Gi52OWalPRyf-29" edge="1">
          <mxGeometry relative="1" as="geometry" />
        </mxCell>
        <mxCell id="TjXJ5lC_Gi52OWalPRyf-28" value="&lt;font style=&quot;font-size: 14px;&quot;&gt;Traitement des données (nettoyage, formatage des données pour mise en base, calcul des metrics utiles, calculer les aggregations pour mise en base)&lt;/font&gt;" style="whiteSpace=wrap;html=1;rounded=0;" parent="1" vertex="1">
          <mxGeometry x="275" y="520" width="280" height="80" as="geometry" />
        </mxCell>
        <mxCell id="8AMlhz3cNbG_tFNBuSd6-4" style="edgeStyle=orthogonalEdgeStyle;rounded=0;orthogonalLoop=1;jettySize=auto;html=1;exitX=0.5;exitY=1;exitDx=0;exitDy=0;entryX=0.14;entryY=-0.014;entryDx=0;entryDy=0;entryPerimeter=0;" parent="1" source="TjXJ5lC_Gi52OWalPRyf-29" target="8AMlhz3cNbG_tFNBuSd6-3" edge="1">
          <mxGeometry relative="1" as="geometry" />
        </mxCell>
        <mxCell id="TjXJ5lC_Gi52OWalPRyf-29" value="" style="shape=image;verticalLabelPosition=bottom;labelBackgroundColor=default;verticalAlign=top;aspect=fixed;imageAspect=0;image=https://www.impulsmap.fr/wp-content/uploads/2016/07/LogoPostgreSql100reel.png;" parent="1" vertex="1">
          <mxGeometry x="363.2" y="714" width="103.59" height="115" as="geometry" />
        </mxCell>
        <mxCell id="TjXJ5lC_Gi52OWalPRyf-32" value="A automatiser 1 fois&lt;div&gt;par jour&amp;nbsp;&lt;span style=&quot;background-color: transparent; color: light-dark(rgb(0, 0, 0), rgb(255, 255, 255));&quot;&gt;ou par&lt;/span&gt;&lt;/div&gt;&lt;div&gt;&lt;span style=&quot;background-color: transparent; color: light-dark(rgb(0, 0, 0), rgb(255, 255, 255));&quot;&gt;semaine par ex&lt;/span&gt;&lt;/div&gt;" style="text;html=1;align=center;verticalAlign=middle;resizable=0;points=[];autosize=1;" parent="1" vertex="1">
          <mxGeometry x="350" y="60" width="130" height="60" as="geometry" />
        </mxCell>
        <mxCell id="TjXJ5lC_Gi52OWalPRyf-33" value="&lt;span style=&quot;color: rgb(51, 51, 51); font-family: arial, sans-serif; font-size: 14px; text-wrap-mode: nowrap; background-color: rgb(255, 255, 255);&quot;&gt;Web scraping bien-dans-ma-ville.fr&lt;/span&gt;&lt;span style=&quot;background-color: light-dark(rgb(255, 255, 255), rgb(18, 18, 18)); color: light-dark(rgb(51, 51, 51), rgb(193, 193, 193)); font-family: arial, sans-serif; font-size: 14px; text-wrap-mode: nowrap;&quot;&gt;&amp;nbsp;pour&amp;nbsp;&lt;/span&gt;&lt;div&gt;&lt;span style=&quot;background-color: light-dark(rgb(255, 255, 255), rgb(18, 18, 18)); color: light-dark(rgb(51, 51, 51), rgb(193, 193, 193)); font-family: arial, sans-serif; font-size: 14px; text-wrap-mode: nowrap;&quot;&gt;récup des infos sur les villes : sécurité,&lt;br&gt;&lt;/span&gt;&lt;/div&gt;&lt;div&gt;&lt;span style=&quot;background-color: light-dark(rgb(255, 255, 255), rgb(18, 18, 18)); color: light-dark(rgb(51, 51, 51), rgb(193, 193, 193)); font-family: arial, sans-serif; font-size: 14px; text-wrap-mode: nowrap;&quot;&gt;infos pratiques, etc...&lt;/span&gt;&lt;/div&gt;" style="rounded=0;whiteSpace=wrap;html=1;" parent="1" vertex="1">
          <mxGeometry x="630" y="130" width="290" height="90" as="geometry" />
        </mxCell>
        <mxCell id="TjXJ5lC_Gi52OWalPRyf-34" value="A voir si on execute une seule&lt;div&gt;fois ou si on automatise&lt;/div&gt;" style="text;html=1;align=center;verticalAlign=middle;resizable=0;points=[];autosize=1;" parent="1" vertex="1">
          <mxGeometry x="685" y="70" width="180" height="40" as="geometry" />
        </mxCell>
        <mxCell id="TjXJ5lC_Gi52OWalPRyf-35" value="&lt;font face=&quot;arial, sans-serif&quot; color=&quot;#333333&quot;&gt;&lt;span style=&quot;font-size: 14px; text-wrap-mode: nowrap; background-color: rgb(255, 255, 255);&quot;&gt;Télécharger sur site du gouvernement les&lt;/span&gt;&lt;/font&gt;&lt;div&gt;&lt;font face=&quot;arial, sans-serif&quot; color=&quot;#333333&quot;&gt;&lt;span style=&quot;font-size: 14px; text-wrap-mode: nowrap; background-color: rgb(255, 255, 255);&quot;&gt;geojson contenant les polygons des régions,&lt;/span&gt;&lt;/font&gt;&lt;/div&gt;&lt;div&gt;&lt;font face=&quot;arial, sans-serif&quot; color=&quot;#333333&quot;&gt;&lt;span style=&quot;font-size: 14px; text-wrap-mode: nowrap; background-color: rgb(255, 255, 255);&quot;&gt;départements et villes&lt;/span&gt;&lt;/font&gt;&lt;/div&gt;" style="rounded=0;whiteSpace=wrap;html=1;" parent="1" vertex="1">
          <mxGeometry x="980" y="130" width="290" height="90" as="geometry" />
        </mxCell>
        <mxCell id="TjXJ5lC_Gi52OWalPRyf-36" value="A executer 1 fois au début,&lt;div&gt;pas de besoin pour une&lt;/div&gt;&lt;div&gt;automatisation&lt;/div&gt;" style="text;html=1;align=center;verticalAlign=middle;resizable=0;points=[];autosize=1;" parent="1" vertex="1">
          <mxGeometry x="1040" y="60" width="170" height="60" as="geometry" />
        </mxCell>
        <mxCell id="8AMlhz3cNbG_tFNBuSd6-2" style="edgeStyle=orthogonalEdgeStyle;rounded=0;orthogonalLoop=1;jettySize=auto;html=1;entryX=0.5;entryY=0;entryDx=0;entryDy=0;" parent="1" source="TjXJ5lC_Gi52OWalPRyf-37" target="8AMlhz3cNbG_tFNBuSd6-1" edge="1">
          <mxGeometry relative="1" as="geometry" />
        </mxCell>
        <mxCell id="TjXJ5lC_Gi52OWalPRyf-37" value="&lt;font style=&quot;font-size: 14px;&quot;&gt;Traitement des données (formatage des données pour mise en base, Nuage de mot, ...)&lt;/font&gt;" style="whiteSpace=wrap;html=1;rounded=0;" parent="1" vertex="1">
          <mxGeometry x="635" y="520" width="280" height="80" as="geometry" />
        </mxCell>
        <mxCell id="TjXJ5lC_Gi52OWalPRyf-38" value="&lt;font style=&quot;font-size: 14px;&quot;&gt;Traitement des données (nettoyage, formatage des données pour mise en base, calcul des metrics si nécessaire)&lt;/font&gt;" style="whiteSpace=wrap;html=1;rounded=0;" parent="1" vertex="1">
          <mxGeometry x="990" y="520" width="280" height="80" as="geometry" />
        </mxCell>
        <mxCell id="TjXJ5lC_Gi52OWalPRyf-40" value="" style="edgeStyle=orthogonalEdgeStyle;rounded=0;orthogonalLoop=1;jettySize=auto;html=1;exitX=0.5;exitY=1;exitDx=0;exitDy=0;" parent="1" edge="1">
          <mxGeometry relative="1" as="geometry">
            <mxPoint x="1124.44" y="220" as="sourcePoint" />
            <mxPoint x="1124.44" y="340" as="targetPoint" />
            <Array as="points" />
          </mxGeometry>
        </mxCell>
        <mxCell id="TjXJ5lC_Gi52OWalPRyf-41" value="" style="edgeStyle=orthogonalEdgeStyle;rounded=0;orthogonalLoop=1;jettySize=auto;html=1;exitX=0.5;exitY=1;exitDx=0;exitDy=0;" parent="1" source="TjXJ5lC_Gi52OWalPRyf-38" target="TjXJ5lC_Gi52OWalPRyf-42" edge="1">
          <mxGeometry relative="1" as="geometry">
            <mxPoint x="1126.21" y="614" as="sourcePoint" />
          </mxGeometry>
        </mxCell>
        <mxCell id="8AMlhz3cNbG_tFNBuSd6-6" style="edgeStyle=orthogonalEdgeStyle;rounded=0;orthogonalLoop=1;jettySize=auto;html=1;exitX=0.5;exitY=1;exitDx=0;exitDy=0;entryX=0.855;entryY=-0.014;entryDx=0;entryDy=0;entryPerimeter=0;" parent="1" source="TjXJ5lC_Gi52OWalPRyf-42" target="8AMlhz3cNbG_tFNBuSd6-3" edge="1">
          <mxGeometry relative="1" as="geometry" />
        </mxCell>
        <mxCell id="TjXJ5lC_Gi52OWalPRyf-42" value="" style="shape=image;verticalLabelPosition=bottom;labelBackgroundColor=default;verticalAlign=top;aspect=fixed;imageAspect=0;image=https://www.impulsmap.fr/wp-content/uploads/2016/07/LogoPostgreSql100reel.png;" parent="1" vertex="1">
          <mxGeometry x="1078.21" y="714" width="103.59" height="115" as="geometry" />
        </mxCell>
        <mxCell id="TjXJ5lC_Gi52OWalPRyf-43" value="&lt;font style=&quot;font-size: 18px; color: rgb(66, 129, 255);&quot;&gt;Données sources&lt;/font&gt;" style="text;html=1;align=center;verticalAlign=middle;whiteSpace=wrap;rounded=0;" parent="1" vertex="1">
          <mxGeometry x="170" y="60" width="60" height="30" as="geometry" />
        </mxCell>
        <mxCell id="TjXJ5lC_Gi52OWalPRyf-44" value="&lt;font style=&quot;font-size: 14px;&quot;&gt;Stockage dans HDFS (Hadoop)&lt;/font&gt;" style="whiteSpace=wrap;html=1;rounded=0;" parent="1" vertex="1">
          <mxGeometry x="985" y="340" width="280" height="80" as="geometry" />
        </mxCell>
        <mxCell id="TjXJ5lC_Gi52OWalPRyf-45" style="edgeStyle=orthogonalEdgeStyle;rounded=0;orthogonalLoop=1;jettySize=auto;html=1;entryX=0.48;entryY=-0.012;entryDx=0;entryDy=0;entryPerimeter=0;" parent="1" source="TjXJ5lC_Gi52OWalPRyf-44" target="TjXJ5lC_Gi52OWalPRyf-38" edge="1">
          <mxGeometry relative="1" as="geometry" />
        </mxCell>
        <mxCell id="TjXJ5lC_Gi52OWalPRyf-46" value="" style="shape=image;verticalLabelPosition=bottom;labelBackgroundColor=default;verticalAlign=top;aspect=fixed;imageAspect=0;image=https://upload.wikimedia.org/wikipedia/commons/thumb/f/f3/Apache_Spark_logo.svg/2560px-Apache_Spark_logo.svg.png;" parent="1" vertex="1">
          <mxGeometry x="1181.8" y="473.28" width="90" height="46.72" as="geometry" />
        </mxCell>
        <mxCell id="TjXJ5lC_Gi52OWalPRyf-47" value="" style="shape=image;verticalLabelPosition=bottom;labelBackgroundColor=default;verticalAlign=top;aspect=fixed;imageAspect=0;image=https://upload.wikimedia.org/wikipedia/commons/thumb/f/f3/Apache_Spark_logo.svg/2560px-Apache_Spark_logo.svg.png;" parent="1" vertex="1">
          <mxGeometry x="820" y="473.28" width="90" height="46.72" as="geometry" />
        </mxCell>
        <mxCell id="TjXJ5lC_Gi52OWalPRyf-48" value="" style="shape=image;verticalLabelPosition=bottom;labelBackgroundColor=default;verticalAlign=top;aspect=fixed;imageAspect=0;image=https://upload.wikimedia.org/wikipedia/commons/thumb/f/f3/Apache_Spark_logo.svg/2560px-Apache_Spark_logo.svg.png;" parent="1" vertex="1">
          <mxGeometry x="465" y="473.28" width="90" height="46.72" as="geometry" />
        </mxCell>
        <mxCell id="TjXJ5lC_Gi52OWalPRyf-49" value="" style="shape=image;verticalLabelPosition=bottom;labelBackgroundColor=default;verticalAlign=top;aspect=fixed;imageAspect=0;image=https://upload.wikimedia.org/wikipedia/commons/thumb/0/0e/Hadoop_logo.svg/1280px-Hadoop_logo.svg.png;" parent="1" vertex="1">
          <mxGeometry x="1145" y="308.33" width="121.8" height="31.67" as="geometry" />
        </mxCell>
        <mxCell id="8AMlhz3cNbG_tFNBuSd6-5" style="edgeStyle=orthogonalEdgeStyle;rounded=0;orthogonalLoop=1;jettySize=auto;html=1;exitX=0.5;exitY=1;exitDx=0;exitDy=0;entryX=0.5;entryY=0;entryDx=0;entryDy=0;" parent="1" source="8AMlhz3cNbG_tFNBuSd6-1" target="8AMlhz3cNbG_tFNBuSd6-3" edge="1">
          <mxGeometry relative="1" as="geometry" />
        </mxCell>
        <mxCell id="8AMlhz3cNbG_tFNBuSd6-1" value="" style="shape=image;verticalLabelPosition=bottom;labelBackgroundColor=default;verticalAlign=top;aspect=fixed;imageAspect=0;image=https://www.pngall.com/wp-content/uploads/13/Mongodb-PNG-Free-Image.png;" parent="1" vertex="1">
          <mxGeometry x="687.5" y="714.78" width="175" height="98.44" as="geometry" />
        </mxCell>
        <mxCell id="8AMlhz3cNbG_tFNBuSd6-10" value="" style="edgeStyle=orthogonalEdgeStyle;rounded=0;orthogonalLoop=1;jettySize=auto;html=1;" parent="1" source="8AMlhz3cNbG_tFNBuSd6-3" target="8AMlhz3cNbG_tFNBuSd6-9" edge="1">
          <mxGeometry relative="1" as="geometry" />
        </mxCell>
        <mxCell id="8AMlhz3cNbG_tFNBuSd6-3" value="&lt;font style=&quot;font-size: 14px;&quot;&gt;API&lt;/font&gt;" style="rounded=0;whiteSpace=wrap;html=1;" parent="1" vertex="1">
          <mxGeometry x="715" y="950" width="120" height="60" as="geometry" />
        </mxCell>
        <mxCell id="8AMlhz3cNbG_tFNBuSd6-8" value="" style="shape=image;verticalLabelPosition=bottom;labelBackgroundColor=default;verticalAlign=top;aspect=fixed;imageAspect=0;image=https://static-00.iconduck.com/assets.00/flask-icon-1594x2048-84mjydzf.png;" parent="1" vertex="1">
          <mxGeometry x="860" y="950.26" width="46.5" height="59.74" as="geometry" />
        </mxCell>
        <mxCell id="8AMlhz3cNbG_tFNBuSd6-9" value="&lt;font style=&quot;font-size: 14px;&quot;&gt;Front-end&lt;/font&gt;" style="rounded=0;whiteSpace=wrap;html=1;" parent="1" vertex="1">
          <mxGeometry x="715" y="1090" width="120" height="60" as="geometry" />
        </mxCell>
        <mxCell id="8AMlhz3cNbG_tFNBuSd6-11" value="" style="shape=image;verticalLabelPosition=bottom;labelBackgroundColor=default;verticalAlign=top;aspect=fixed;imageAspect=0;image=https://streamlit.io/images/brand/streamlit-logo-primary-colormark-darktext.png;" parent="1" vertex="1">
          <mxGeometry x="850" y="1118.75" width="130" height="36.08" as="geometry" />
        </mxCell>
        <mxCell id="8AMlhz3cNbG_tFNBuSd6-12" value="" style="shape=image;verticalLabelPosition=bottom;labelBackgroundColor=default;verticalAlign=top;aspect=fixed;imageAspect=0;image=https://upload.wikimedia.org/wikipedia/commons/thumb/1/1f/Mapbox_logo_2019.svg/640px-Mapbox_logo_2019.svg.png;" parent="1" vertex="1">
          <mxGeometry x="1000" y="1090" width="107.5" height="24.19" as="geometry" />
        </mxCell>
        <mxCell id="8AMlhz3cNbG_tFNBuSd6-14" value="&lt;font style=&quot;font-size: 18px;&quot;&gt;Traitement des données&lt;/font&gt;" style="text;html=1;align=center;verticalAlign=middle;whiteSpace=wrap;rounded=0;fontColor=#55C371;" parent="1" vertex="1">
          <mxGeometry x="153" y="308" width="110" height="30" as="geometry" />
        </mxCell>
        <mxCell id="8AMlhz3cNbG_tFNBuSd6-16" value="&lt;font style=&quot;font-size: 18px;&quot;&gt;Stockage des données&lt;/font&gt;" style="text;html=1;align=center;verticalAlign=middle;whiteSpace=wrap;rounded=0;fontColor=#CD8532;" parent="1" vertex="1">
          <mxGeometry x="153" y="658" width="110" height="30" as="geometry" />
        </mxCell>
        <mxCell id="8AMlhz3cNbG_tFNBuSd6-18" value="&lt;font style=&quot;font-size: 18px;&quot;&gt;Front-end&lt;/font&gt;" style="text;html=1;align=center;verticalAlign=middle;whiteSpace=wrap;rounded=0;fontColor=#FFB30F;" parent="1" vertex="1">
          <mxGeometry x="153" y="888" width="110" height="30" as="geometry" />
        </mxCell>
        <mxCell id="8AMlhz3cNbG_tFNBuSd6-20" value="&lt;font style=&quot;font-size: 32px;&quot;&gt;Diagramme de flux T-DAT-902&lt;/font&gt;" style="text;html=1;align=center;verticalAlign=middle;whiteSpace=wrap;rounded=0;" parent="1" vertex="1">
          <mxGeometry x="520" y="-10" width="490" height="30" as="geometry" />
        </mxCell>
      </root>
    </mxGraphModel>
  </diagram>
</mxfile>
